<svg xmlns="http://www.w3.org/2000/svg" xmlns:xlink="http://www.w3.org/1999/xlink" viewBox="0 0 32 40" version="1.1" x="0px" y="0px"><title>Icons32px / Shopping-cart </title><desc>Created with Sketch.</desc><g stroke="none" stroke-width="1" fill="none" fill-rule="evenodd"><path d="M12,28 C10.3431458,28 9,26.6568542 9,25 C9,23.3431458 10.3431458,22 12,22 C13.6568542,22 15,23.3431458 15,25 C15,26.6568542 13.6568542,28 12,28 Z M12,26 C12.5522847,26 13,25.5522847 13,25 C13,24.4477153 12.5522847,24 12,24 C11.4477153,24 11,24.4477153 11,25 C11,25.5522847 11.4477153,26 12,26 Z" fill="#000000"/><path d="M24,28 C22.3431458,28 21,26.6568542 21,25 C21,23.3431458 22.3431458,22 24,22 C25.6568542,22 27,23.3431458 27,25 C27,26.6568542 25.6568542,28 24,28 Z M24,26 C24.5522847,26 25,25.5522847 25,25 C25,24.4477153 24.5522847,24 24,24 C23.4477153,24 23,24.4477153 23,25 C23,25.5522847 23.4477153,26 24,26 Z" fill="#000000"/><path d="M10.8007503,11 L11.7415187,18.130036 C11.8071866,18.631028 12.2362594,19.0043214 12.75,19 L23.3391603,19.0001836 C23.8234683,19.0094648 24.2447918,18.6702993 24.3394643,18.1936591 L25.7799109,11 L10.8007503,11 Z M10.5368615,9 L27,9 C27.6311399,9 28.1044543,9.57748564 27.9805357,10.1963409 L26.3008397,18.5848164 C26.0177343,20.0101637 24.7537638,21.02766 23.32,21 L12.7584813,20.999964 C11.2427034,21.0128202 9.95548498,19.8929402 9.75859264,18.3908107 L8.23848586,6.86999885 C8.17329697,6.37279679 7.74994264,6.00075813 7.25,6 L5,6 C4.44771525,6 4,5.55228475 4,5 C4,4.44771525 4.44771525,4 5,4 L7.25151414,4 C8.7558845,4.00227898 10.0259475,5.11839495 10.2214074,6.60918931 L10.5368615,9 Z" fill="#000000"/></g><text x="0" y="47" fill="#000000" font-size="5px" font-weight="bold" font-family="'Helvetica Neue', Helvetica, Arial-Unicode, Arial, Sans-serif">Created by Nguyen Van Sao</text><text x="0" y="52" fill="#000000" font-size="5px" font-weight="bold" font-family="'Helvetica Neue', Helvetica, Arial-Unicode, Arial, Sans-serif">from the Noun Project</text></svg>