<svg xmlns="http://www.w3.org/2000/svg" xmlns:xlink="http://www.w3.org/1999/xlink" version="1.1" x="0px" y="0px" viewBox="0 0 100 125" style="enable-background:new 0 0 100 100;" xml:space="preserve"><g><path d="M80,10.5H20c-6.3,0-11.5,5.2-11.5,11.5v43.4c0,6.3,5.2,11.5,11.5,11.5h11.8l9.3,10.8c0.9,1.1,2.2,1.8,3.6,1.8   s2.8-0.7,3.6-1.8l9.3-10.8H80c6.3,0,11.5-5.2,11.5-11.5V22C91.5,15.7,86.4,10.5,80,10.5z M84.5,65.4c0,2.5-2,4.5-4.5,4.5H56.2   c-1,0-2,0.4-2.6,1.2l-8.7,10.1l-8.7-10.1c-0.7-0.8-1.6-1.2-2.6-1.2H20c-2.5,0-4.5-2-4.5-4.5V22c0-2.5,2-4.5,4.5-4.5h60   c2.5,0,4.5,2,4.5,4.5V65.4z"/></g><text x="0" y="115" fill="#000000" font-size="5px" font-weight="bold" font-family="'Helvetica Neue', Helvetica, Arial-Unicode, Arial, Sans-serif">Created by Genius Icons</text><text x="0" y="120" fill="#000000" font-size="5px" font-weight="bold" font-family="'Helvetica Neue', Helvetica, Arial-Unicode, Arial, Sans-serif">from the Noun Project</text></svg>